P280 80511511 511 511 511 511 511 511 511 438 292 219 292 292 292 365 438 511 511 511 511 511 511 511 511 511 511 511 511 511 511 511 511 511 511 511 511 511 511 511 511 511 511 511 511 511 511 511 511 511 511 511 511 511 511 511 511 511 511 511 511 511 511 511 511 511 511 511 511 511 511 511 511 511 511 511 511 511 511 511 511 511 511 511 511 511 511 438 292 219 219 292 365 365 292 292 292 365 511 511 511 511 511 511 511 511 511 511 511 511 511 511 511 511 511 511 511 511 511 511 511 511 511 511 511 511 511 511 511 511 511 511 511 511 511 511 511 511 511 511 511 511 511 511 511 511 511 511 511 511 511 511 511 511 511 511 511 511 511 511 511 511 511 511 511 438 219 219 219 292 292 292 292 292 365 292 219 219 511 511 511 511 511 511 511 511 511 511 511 511 511 511 511 511 365 292 511 511 511 511 511 511 511 511 511 511 511 511 511 511 511 511 511 511 511 511 511 511 511 511 511 511 511 511 511 511 511 511 511 511 511 511 511 511 511 511 511 511 511 511 511 511 511 511 365 219 219 219 292 292 219 292 292 292 292 219 73 146 365 511 438 365 438 511 511 511 511 511 511 511 511 511 511 219 0 0 365 511 511 511 511 511 511 511 511 511 511 511 511 511 511 511 511 511 511 511 511 511 511 438 365 365 365 438 438 511 511 511 511 511 511 511 511 511 511 511 511 511 511 511 511 511 511 365 146 219 219 219 219 292 219 219 292 292 219 73 0 73 219 365 219 146 146 438 511 511 511 511 511 511 511 511 438 73 0 146 511 511 511 511 511 511 511 511 511 511 511 511 511 511 511 511 511 511 511 511 511 438 292 219 219 219 219 219 292 292 438 511 511 511 511 511 511 511 511 511 511 511 511 511 511 511 511 219 219 219 219 219 219 146 73 219 292 292 219 219 219 146 146 292 73 0 0 219 511 511 511 511 511 511 511 511 511 73 73 438 511 511 511 511 511 511 511 511 511 511 511 511 511 511 511 511 511 511 511 511 438 292 292 292 292 292 292 292 292 219 219 438 511 511 511 511 511 511 511 511 511 511 511 511 511 511 365 146 219 219 219 219 146 0 0 292 292 292 219 146 73 0 73 365 365 146 0 73 365 511 511 511 511 511 511 511 511 438 438 511 511 511 511 511 511 511 511 511 511 511 511 511 511 511 511 511 511 511 511 511 292 292 292 292 292 292 292 292 292 292 219 292 511 511 511 511 511 511 511 511 511 511 511 511 511 511 219 219 219 219 146 146 73 0 0 73 292 292 219 146 146 0 73 438 511 438 219 365 511 511 511 511 511 511 511 511 511 511 511 511 511 511 511 511 511 511 511 511 511 511 511 511 511 511 511 511 511 511 511 438 292 292 292 292 292 292 292 292 292 292 219 292 511 511 511 511 511 511 511 511 511 511 511 511 511 438 146 219 219 146 146 73 0 0 0 73 146 0 146 219 146 0 146 511 511 511 511 511 511 511 511 511 511 511 511 511 511 511 511 511 511 511 511 511 511 511 511 511 511 511 511 511 511 511 511 511 511 511 511 438 292 292 292 292 292 292 292 292 292 292 292 219 438 511 511 511 511 511 511 511 511 511 511 511 511 292 73 146 219 73 73 0 0 0 0 0 0 0 73 438 438 438 511 511 511 511 511 511 511 511 511 511 511 511 511 511 511 511 511 511 511 511 511 511 511 511 511 511 511 511 511 511 511 511 511 511 511 511 511 511 292 292 292 292 292 292 292 292 292 292 292 219 438 511 511 511 511 511 511 511 511 511 511 511 511 146 0 0 0 0 0 0 0 0 0 0 0 0 219 438 511 511 511 511 511 511 511 511 511 511 511 511 511 511 511 511 511 511 511 511 511 511 511 511 511 511 511 511 511 511 511 511 511 511 511 511 511 511 511 511 365 219 292 292 292 292 292 292 292 292 219 292 511 511 511 511 511 511 511 511 511 511 511 511 511 73 0 0 0 0 0 0 0 0 0 0 0 73 219 438 511 511 511 511 511 511 511 511 511 511 511 511 511 511 511 511 511 511 511 511 511 511 511 511 511 511 511 511 511 511 511 511 511 511 511 511 511 511 511 511 438 219 219 219 292 292 292 292 219 146 219 365 438 511 511 511 511 511 511 511 511 511 511 511 511 0 0 0 0 0 0 0 0 0 0 0 0 73 292 438 511 511 511 511 511 511 511 511 511 511 511 511 511 511 511 511 511 511 511 511 511 511 511 511 511 438 511 511 511 511 511 511 511 511 511 511 511 511 511 511 511 365 219 146 219 146 146 219 219 292 365 365 438 511 511 511 511 511 511 511 511 511 511 511 511 0 0 0 0 0 0 0 0 0 0 0 73 219 292 365 511 511 511 511 511 511 511 511 511 511 511 511 511 511 511 511 511 511 511 511 511 511 511 511 511 365 511 511 511 511 511 511 511 511 511 511 511 511 511 511 365 511 438 292 219 292 292 365 365 365 365 365 438 511 511 511 511 511 511 511 511 511 511 511 511 73 0 0 0 0 0 0 0 0 0 0 146 73 146 292 365 511 511 511 511 511 511 511 511 511 511 511 511 511 511 511 511 511 511 511 292 292 511 511 511 365 511 511 511 511 511 511 511 511 511 511 511 511 511 365 219 438 511 511 292 365 365 365 365 365 365 365 438 511 511 511 511 511 511 511 511 511 511 511 511 146 0 0 0 0 0 0 0 0 146 73 0 0 146 219 292 511 511 511 511 511 438 219 73 73 146 365 511 511 511 511 511 511 438 146 0 73 438 511 511 365 438 511 511 511 511 511 511 511 511 511 511 511 438 292 219 219 438 511 438 365 365 365 438 438 438 438 438 511 511 511 511 511 511 511 511 511 511 511 511 219 0 0 0 0 0 0 0 73 219 146 146 146 73 146 292 511 511 511 511 438 73 0 0 0 0 0 292 511 511 511 511 365 365 146 0 73 365 438 511 365 365 511 511 511 511 511 511 511 511 511 511 511 292 219 219 73 146 438 511 438 365 365 438 438 438 292 511 511 511 511 511 511 511 511 511 511 511 511 511 365 0 0 0 0 0 0 0 73 73 73 219 146 73 146 219 511 511 511 511 365 73 0 146 365 219 146 73 511 511 438 292 219 219 73 0 219 438 438 511 292 219 219 292 365 438 511 511 511 511 511 511 365 219 219 146 73 0 73 292 365 438 438 438 365 292 292 511 511 511 511 511 511 511 511 511 511 511 511 511 511 146 0 0 0 0 0 0 0 0 0 73 73 73 73 146 438 511 511 511 438 219 73 146 438 292 292 73 438 511 438 219 146 73 0 146 365 438 438 438 219 73 0 73 146 219 292 365 438 438 511 438 292 219 146 146 0 0 0 0 73 146 146 146 73 73 365 511 511 511 511 511 511 511 511 511 511 511 511 511 511 365 0 0 0 0 0 0 0 0 0 0 0 73 0 146 365 511 511 511 511 292 219 146 146 146 73 365 511 511 438 438 365 365 365 365 438 438 438 365 73 0 0 0 0 73 73 146 219 219 219 292 219 219 146 0 0 0 0 0 0 0 0 0 0 73 438 511 511 511 511 511 511 511 511 511 511 511 511 511 511 511 146 0 0 0 0 0 0 0 0 0 0 0 73 146 292 511 511 511 511 511 292 219 146 73 438 511 511 511 511 511 438 438 438 438 365 438 438 219 0 0 0 0 0 0 0 0 0 0 146 292 219 146 73 0 0 0 0 0 0 0 0 0 0 146 511 511 511 511 511 511 511 511 511 511 511 511 511 511 511 511 438 73 0 0 0 0 0 0 0 0 0 0 73 146 219 438 511 511 511 511 511 438 365 438 511 511 511 511 511 511 438 365 438 438 438 438 365 73 0 0 0 0 0 0 0 0 0 0 219 219 146 73 0 0 0 0 0 0 0 0 0 0 0 219 511 511 511 511 511 511 511 511 511 511 511 511 511 511 511 511 511 438 73 0 0 0 0 0 0 0 73 0 0 73 146 219 438 438 511 511 511 511 511 438 511 511 511 511 511 511 292 292 438 438 438 365 146 0 0 0 0 0 0 0 0 0 0 73 219 219 73 0 0 0 0 0 0 0 0 0 0 0 0 219 292 365 511 511 511 511 511 511 511 511 511 511 511 511 511 511 511 511 438 73 0 0 0 0 0 0 0 0 0 73 146 146 219 365 438 438 438 438 511 438 511 438 438 511 438 292 146 365 438 438 438 292 0 0 0 0 0 0 0 0 0 0 0 146 292 219 73 0 0 0 0 0 0 0 0 0 0 0 73 146 146 146 219 365 511 511 511 511 511 511 511 511 511 511 511 511 511 511 511 438 73 0 0 0 0 0 0 0 0 0 73 73 0 292 438 438 365 438 511 438 438 365 146 73 73 0 219 365 438 438 365 73 0 0 0 0 0 0 0 0 0 0 73 219 219 146 0 0 0 0 0 0 0 0 0 0 0 0 146 73 73 73 73 146 292 438 511 511 511 511 511 511 511 511 511 511 511 511 511 511 438 146 0 0 0 0 0 0 0 0 0 0 0 0 292 365 438 438 438 438 438 438 365 219 146 219 365 365 438 365 73 0 0 0 0 0 0 0 0 0 0 0 146 292 146 73 0 0 0 0 0 0 0 0 0 0 0 73 146 73 0 0 0 73 146 219 365 511 511 511 511 511 511 511 511 511 511 511 511 511 511 511 146 0 0 0 0 0 0 0 0 0 0 0 0 146 365 438 438 438 438 438 365 365 365 365 438 438 365 73 0 0 0 0 0 0 0 0 0 0 0 0 219 219 146 0 0 0 0 0 0 0 0 0 0 0 0 73 73 0 0 0 0 0 0 73 146 292 438 511 511 511 511 511 511 511 511 511 511 511 511 511 511 146 0 0 0 0 0 0 0 0 0 0 0 0 73 219 365 438 438 438 438 438 438 438 438 292 73 0 0 0 0 0 0 0 0 0 0 0 0 73 219 219 73 0 0 0 0 0 0 0 0 0 0 0 0 73 0 0 0 0 0 0 0 0 73 219 292 438 511 511 511 511 511 511 511 511 511 511 511 511 511 511 219 0 0 0 0 0 0 0 0 0 0 0 0 0 73 219 292 365 365 365 365 292 146 0 0 0 0 0 0 0 0 0 0 0 0 73 146 219 219 219 73 0 0 0 0 0 0 0 0 0 0 0 0 146 0 0 0 0 0 0 0 0 0 73 219 292 365 511 511 511 511 511 511 511 511 511 511 511 511 511 511 219 0 0 0 0 0 0 0 0 0 0 0 0 0 0 0 0 73 73 0 0 0 0 0 0 0 0 0 0 0 0 0 73 292 365 365 292 146 146 0 0 0 0 0 0 0 0 0 0 0 0 0 73 0 0 0 0 0 0 0 0 0 0 219 292 219 292 438 511 511 511 511 511 511 511 511 511 511 511 511 511 219 0 0 0 0 0 0 0 0 0 0 0 0 0 0 0 0 0 0 0 0 0 0 0 0 0 0 0 0 0 73 365 438 438 438 365 146 73 0 0 0 0 0 0 0 0 0 0 0 0 0 146 0 0 0 0 0 0 0 0 0 73 219 146 73 146 292 438 511 511 511 511 511 511 511 511 511 511 511 511 511 219 0 0 0 0 0 0 0 0 0 73 73 0 0 0 0 0 0 0 0 0 0 0 73 73 73 146 146 146 365 365 365 365 365 438 146 0 0 0 0 0 0 0 0 0 0 0 0 0 0 219 0 0 0 0 0 0 0 0 0 219 146 0 0 0 146 292 511 511 511 511 511 511 511 511 511 511 511 511 511 511 146 0 0 0 0 0 0 0 0 0 0 0 0 0 0 0 0 73 146 219 292 365 365 365 365 365 365 438 438 365 365 365 365 438 219 0 0 0 0 0 0 0 0 0 0 0 0 0 0 146 146 0 0 0 0 0 0 0 0 219 146 146 146 73 146 292 511 511 511 511 511 511 511 511 511 511 511 511 511 511 511 146 0 0 0 0 0 0 0 0 73 146 219 292 219 292 365 365 365 438 438 438 438 438 438 438 438 511 365 365 365 292 365 438 292 0 0 0 0 0 0 0 0 0 0 0 0 0 0 73 219 0 0 0 0 0 0 0 0 146 73 73 146 219 292 292 511 511 511 511 511 511 511 511 511 511 511 511 511 511 511 438 73 0 0 0 0 0 0 146 219 365 438 511 511 511 511 511 511 438 438 511 511 511 511 511 511 511 438 365 365 365 365 438 365 73 0 0 0 0 0 0 0 0 0 0 0 0 0 73 219 0 0 0 0 0 0 0 0 0 0 0 0 73 146 292 511 511 511 511 511 511 511 511 511 511 511 511 511 511 511 511 438 73 0 0 0 73 219 292 438 511 511 511 511 511 511 511 511 511 511 511 511 511 511 511 511 511 438 365 365 365 292 365 438 219 0 0 0 0 0 0 0 0 0 0 0 0 0 0 292 73 0 0 0 0 0 292 219 0 0 0 0 0 146 438 511 511 511 511 511 511 511 511 511 511 511 511 511 511 511 511 511 365 0 0 0 219 292 511 511 511 511 511 511 511 511 511 511 511 511 511 511 511 511 511 511 511 438 365 365 292 292 365 438 365 0 0 0 0 0 0 0 0 0 0 0 0 0 0 365 146 0 0 0 73 365 511 438 146 73 73 146 219 438 511 511 511 511 511 511 511 511 511 511 511 511 511 511 511 511 511 511 511 292 0 73 292 511 511 511 511 511 511 511 511 511 511 511 511 511 511 511 511 511 511 511 511 438 365 365 292 292 365 438 438 146 0 0 0 0 0 0 0 0 0 0 0 0 73 365 146 0 73 292 511 511 511 511 511 511 511 511 511 511 511 511 511 511 511 511 511 511 511 511 511 511 511 511 511 511 511 511 511 511 219 73 438 511 511 511 511 511 511 511 511 511 511 511 511 511 511 511 511 511 511 511 511 511 365 365 365 292 365 438 438 365 73 0 0 0 0 0 0 0 0 0 0 0 219 365 292 365 511 511 511 511 511 511 511 511 511 511 511 511 511 511 511 511 511 511 511 511 511 511 511 511 511 511 511 511 511 511 511 511 511 146 438 511 511 511 511 511 511 511 511 511 511 511 511 511 511 511 511 511 511 511 511 511 438 365 365 292 365 438 365 365 219 0 0 0 0 0 0 0 0 0 0 73 292 292 438 511 511 511 511 511 511 511 511 511 511 511 511 511 511 511 511 511 511 511 511 511 511 511 511 511 511 511 511 511 511 511 511 511 511 438 438 511 511 511 511 511 511 511 511 511 511 511 511 511 511 511 511 511 511 511 511 511 438 292 292 219 292 365 365 365 292 219 0 0 0 0 0 0 0 0 73 219 292 365 438 511 511 511 511 511 511 511 511 511 511 511 511 511 511 511 511 511 511 511 511 511 511 511 511 511 511 511 511 511 511 511 511 511 511 511 511 511 511 511 511 511 511 511 511 511 511 511 511 511 511 511 511 511 511 511 511 511 511 365 292 292 292 365 365 292 292 292 219 73 0 0 0 0 0 73 219 292 292 292 438 511 511 511 511 511 511 511 511 511 511 511 511 511 511 511 511 511 511 511 511 511 511 511 511 511 511 511 511 511 511 511 511 511 511 511 511 511 511 511 511 511 511 511 511 511 511 511 511 511 511 511 511 511 511 511 511 511 511 438 365 438 365 292 292 292 292 292 292 292 146 73 73 146 219 292 292 292 292 292 511 511 511 511 511 511 511 511 511 511 511 511 511 511 511 511 511 511 511 511 511 511 511 511 511 511 511 511 511 511 511 511 511 511 511 511 511 511 511 511 511 511 511 511 511 511 511 511 511 511 511 511 511 511 511 511 511 511 511 511 365 292 292 219 292 292 292 292 292 292 292 292 292 292 292 292 292 292 292 292 511 511 511 511 511 511 511 511 511 511 511 511 511 511 511 511 511 511 511 511 511 511 511 511 511 511 511 511 511 511 511 511 511 511 511 511 511 511 511 511 511 511 511 511 511 511 511 511 511 511 511 511 511 511 511 511 511 511 511 511 438 292 292 292 292 292 292 292 292 292 292 292 292 292 292 292 292 292 292 292 511 511 511 511 511 511 511 511 511 511 511 511 511 511 511 511 511 511 511 511 511 511 511 511 511 511 511 511 511 511 511 511 511 511 511 511 511 511 511 511 511 511 511 511 511 511 511 511 511 511 511 511 511 511 511 511 511 511 511 511 511 365 365 365 219 292 292 292 292 292 292 292 292 292 292 292 292 292 219 292 511 511 511 511 511 511 511 511 511 511 511 511 511 511 511 511 511 511 511 511 511 511 511 511 511 511 511 511 511 511 511 511 511 511 511 511 511 511 511 511 511 511 511 511 511 511 511 511 511 511 511 511 511 511 511 511 511 511 511 511 511 511 365 292 219 219 292 292 292 292 292 292 292 292 292 292 292 292 292 365 511 511 511 511 511 511 511 511 511 511 511 511 511 511 511 511 511 511 511 511 511 511 511 511 511 511 511 511 511 511 511 511 511 511 511 511 511 511 511 511 511 511 511 511 511 511 511 511 511 511 511 511 511 511 511 511 511 511 511 511 511 511 365 219 219 219 292 292 292 292 292 292 292 292 292 292 292 292 292 365 511 511 511 511 511 511 511 511 511 511 511 511 511 511 511 511 511 511 511 511 511 511 511 511 511 511 511 511 511 511 511 511 511 511 511 511 511 511 511 511 511 511 511 511 511 511 511 511 511 511 511 511 511 511 511 511 511 511 511 511 511 511 511 292 292 219 292 292 292 292 292 292 292 292 292 292 219 292 292 438 511 511 511 511 511 511 511 511 511 511 511 511 511 511 511 511 511 511 511 511 511 511 511 511 511 511 511 511 511 511 511 511 511 511 511 511 511 511 511 511 511 511 511 511 511 511 511 511 511 511 511 511 511 511 511 511 511 511 511 511 511 511 511 365 292 146 219 292 292 292 292 219 292 292 292 292 219 292 292 511 511 511 511 511 511 511 511 511 511 511 511 511 511 511 511 511 511 511 511 511 511 511 511 511 511 511 511 511 511 511 511 511 511 511 511 511 511 511 511 511 511 511 511 511 511 511 511 511 511 511 511 511 511 511 511 511 511 511 511 511 511 438 438 365 219 146 219 292 292 292 292 292 219 292 292 292 292 219 292 511 511 511 511 511 511 511 511 511 511 511 511 511 511 511 511 511 511 511 511 511 511 511 511 511 511 511 511 511 511 511 511 511 511 511 511 511 511 511 511 511 511 511 511 511 511 511 511 511 511 511 511 511 511 511 511 511 511 511 511 438 438 438 438 365 219 219 219 365 292 219 292 219 219 219 292 292 292 219 365 511 511 511 511 511 511 511 511 511 511 511 511 511 511 511 511 511 511 511 511 511 511 511 511 511 511 511 511 511 511 511 511 511 511 511 511 511 511 511 511 511 511 511 511 511 511 511 511 511 511 511 511 511 511 511 511 511 511 438 438 438 438 438 438 365 292 219 292 292 292 219 219 219 219 219 219 292 292 292 438 511 511 511 511 511 511 511 511 511 511 511 511 511 511 511 511 511 511 511 511 511 511 511 511 511 511 511 511 511 511 511 511 511 511 511 511 511 511 511 511 511 511 511 511 511 511 511 511 511 511 511 511 511 511 511 511 511 438 438 438 438 438 438 438 365 292 219 219 219 219 292 219 219 219 219 219 292 292 292 511 511 511 511 511 511 511 511 511 511 511 511 511 511 511 511 511 511 511 511 511 511 511 511 511 511 511 511 511 511 511 511 511 511 511 511 511 511 511 511 511 511 511 511 511 511 511 511 511 511 511 511 511 511 511 511 511 438 438 438 438 438 438 438 438 365 146 73 146 219 292 219 219 219 219 219 292 292 292 438 511 511 511 511 511 511 511 511 511 511 511 511 511 511 511 511 511 511 511 511 511 511 511 511 511 511 511 511 511 511 511 511 511 511 511 511 511 511 511 511 511 511 511 511 511 511 438 438 511 438 438 438 438 438 438 438 438 438 438 438 438 438 438 438 438 292 146 73 219 292 219 219 219 219 219 219 292 292 292 511 511 511 511 511 511 511 511 511 511 511 511 511 511 511 511 511 511 511 511 511 511 511 511 511 511 511 511 511 511 511 511 511 511 511 511 511 511 511 511 511 511 511 511 511 511 511 511 438 438 438 365 365 438 438 438 438 438 365 438 438 438 438 438 438 365 292 73 146 219 219 219 219 219 219 219 292 292 292 438 511 511 511 511 511 511 511 511 511 511 511 511 511 511 511 511 511 511 511 511 511 511 511 511 511 511 511 511 511 511 511 511 511 511 511 511 511 511 511 511 511 511 511 511 511 511 511 511 511 438 365 438 438 438 438 438 438 438 438 438 438 438 438 438 438 365 292 219 219 292 292 219 219 219 219 219 219 219 365 511 511 511 511 511 511 511 511 511 511 511 511 511 511 511 511 511 511 511 511 511 511 511 511 511 511 511 511 511 511 511 511 511 511 511 511 511 511 511 511 511 511 511 511 511 511 511 511 511 511 511 438 365 438 438 438 438 438 438 438 438 438 438 438 438 438 365 292 219 292 292 219 219 219 219 219 292 292 292 511 511 511 511 511 511 511 511 511 511 511 511 511 511 511 511 511 511 511 511 511 511 511 511 511 511 511 511 511 511 511 511 511 511 511 511 511 511 511 511 511 511 511 511 511 511 511 511 511 511 511 511 511 438 438 365 438 438 438 438 438 438 438 438 438 438 292 146 219 292 219 219 219 146 219 219 292 292 219 365 511 511 511 511 511 511 511 511 511 511 511 511 511 511 511 511 511 511 511 511 511 511 511 511 511 511 511 511 511 511 511 511 511 511 511 511 511 511 511 511 511 511 511 511 511 511 511 511 511 511 511 511 511 511 511 438 438 365 365 438 438 438 438 438 438 365 146 146 292 292 219 219 219 219 219 292 292 292 292 511 511 511 511 511 511 511 511 511 511 511 511 511 511 511 511 511 511 511 511 511 511 511 511 511 511 511 511 511 511 511 511 511 511 511 511 511 511 511 511 511 511 511 511 511 511 511 511 511 511 511 511 511 511 511 511 511 511 438 438 438 438 438 438 365 292 219 219 292 292 219 219 219 219 219 219 219 219 292 438 511 511 511 511 511 511 511 511 511 511 511 511 511 511 511 511 511 511 511 511 511 511 511 511 511 511 511 511 511 511 511 511 511 511 511 511 511 511 511 511 511 511 511 511 511 511 511 511 511 511 511 511 511 511 511 511 511 511 511 511 511 438 365 365 292 219 219 292 292 292 219 219 219 219 219 219 219 219 365 511 511 511 511 511 511 511 511 511 511 511 511 511 511 511 511 511 511 511 511 511 511 511 511 511 511 511 511 511 511 511 511 511 511 511 511 511 511 511 511 511 511 511 511 511 511 511 511 511 511 511 511 511 511 511 511 511 511 511 511 511 511 365 219 292 292 292 292 292 292 292 219 219 219 219 292 219 219 292 511 511 511 511 511 511 511 511 511 511 511 511 511 511 511 511 511 511 511 511 511 511 511 511 511 511 511 511 511 511 511 511 511 511 511 511 511 511 511 511 511 511 511 511 511 511 511 511 511 511 511 511 511 511 511 511 511 511 511 511 511 511 511 365 219 292 292 292 292 292 292 292 219 219 219 219 73 73 73 292 511 511 511 511 511 511 511 511 511 511 511 511 511 511 511 511 511 511 511 511 511 511 511 511 511 511 511 511 511 511 511 511 511 511 511 511 511 511 511 511 511 511 511 511 511 511 511 511 511 511 511 511 511 511 511 511 511 511 511 511 511 511 511 292 219 292 292 292 292 292 292 219 146 73 0 0 0 0 0 365 511 511 511 511 511 511 511 511 511 511 511 511 511 511 511 511 511 511 511 511 511 511 511 511 511 511 511 511 511 511 511 511 511 511 511 511 511 511 511 511 511 511 511 511 511 511 511 511 511 511 511 511 511 511 511 511 511 511 511 511 511 511 511 292 219 292 292 219 219 146 73 0 0 0 0 0 0 0 146 511 511 511 511 511 511 511 511 511 511 511 511 511 511 511 511 511 511 511 511 511 511 511 511 511 511 511 511 511 511 511 511 511 511 511 511 511 511 511 511 511 511 511 511 511 511 511 511 511 511 511 511 511 511 511 511 511 511 511 511 511 511 511 511 292 146 219 146 73 0 0 0 0 0 0 0 0 0 0 292 511 511 511 511 511 511 511 511 511 511 511 511 511 511 511 511 511 511 511 511 511 511 511 511 511 511 511 511 511 511 511 511 511 511 511 511 511 511 511 511 511 511 511 511 511 511 511 511 511 511 511 511 511 511 511 511 511 511 511 511 511 511 511 511 365 0 0 0 0 0 0 0 0 0 0 0 0 0 0 438 511 511 511 511 511 511 511 511 511 511 511 511 511 511 511 511 511 511 511 511 511 511 511 511 511 511 511 511 511 511 511 511 511 511 511 511 511 511 511 511 511 511 511 511 511 511 511 511 511 511 511 511 511 511 511 511 511 511 511 511 511 511 511 511 365 0 0 0 0 0 0 0 0 0 0 0 0 0 146 511 511 511 511 511 511 511 511 511 511 511 511 511 511 511 511 511 511 511 511 511 511 511 511 511 511 511 511 511 511 511 511 511 511 511 511 511 511 511 511 511 511 511 511 511 511 511 511 511 511 511 511 511 511 511 511 511 511 511 511 511 511 511 511 511 511 146 0 0 0 0 0 0 0 0 0 0 0 0 219 511 511 511 511 511 511 511 511 511 511 511 511 511 511 511 511 511 511 511 511 511 511 511 511 511 511 511 511 511 511 511 511 511 511 511 511 511 511 511 511 511 511 511 511 511 511 511 511 511 511 511 511 511 511 511 511 511 511 511 511 511 511 511 511 511 511 292 73 0 0 0 0 0 0 0 0 0 0 0 365 511 511 511 511 511 511 511 511 511 511 511 511 511 511 511 511 511 511 511 511 511 511 511 511 511 511 511 511 511 511 511 511 511 511 511 511 511 511 511 511 511 511 511 511 511 511 511 511 511 511 511 511 511 511 511 511 511 511 511 511 511 511 511 511 511 511 511 365 146 73 0 0 0 0 0 73 73 219 292 438 511 511 511 511 511 511 511 511 511 511 511 511 511 511 511 511 511 511 511 511 511 511 511 511 511 511 511 511 511 511 511 511 511 511 511 511 511 511 511 511 511 511 511 511 511 511 511 511 511 511 511 511 511 511 511 511 511 511 511 511 511 511 511 511 511 511 511 511 365 292 292 219 219 292 292 292 292 292 292 511 511 511 511 511 511 511 511 511 511 511 511 511 511 511 511 511 511 511 511 511 511 511 511 511 511 511 511 511 511 511 511 511 511 511 511 511 511 511 511 511 511 511 511 511 511 511 511 511 511 511 511 511 511 511 511 511 511 511 511 511 511 511 511 511 511 511 511 511 365 292 292 292 292 292 292 292 292 292 365 511 511 511 511 511 511 511 511 511 511 511 511 511 511 511 511 511 511 511 511 511 511 511 511 511 511 511 511 511 511 511 511 511 511 511 511 511 511 511 511 511 511 511 511 511 511 511 511 511 511 511 511 511 511 511 511 511 511 511 511 511 511 511 511 511 511 511 438 365 365 365 292 219 292 292 292 292 292 292 511 511 511 511 511 511 511 511 511 511 511 511 511 511 511 511 511 511 511 511 511 511 511 511 511 511 511 511 511 511 511 511 511 511 511 511 511 511 511 511 511 511 511 511 511 511 511 511 511 511 511 511 511 511 511 511 511 511 511 511 511 511 511 511 511 511 511 511 292 292 292 292 365 365 292 292 292 292 292 438 511 511 511 511 511 511 511 511 511 511 511 511 511 511 511 511 511 511 511 511 511 511 511 511 511 511 511 511 511 511 511 511 511 511 511 511 511 511 511 511 511 511 511 511 511 511 511 511 511 511 511 511 511 511 511 511 511 511 511 511 511 511 511 511 511 511 511 438 219 292 292 292 292 365 365 365 292 292 292 511 511 511 511 511 511 511 511 511 511 511 511 511 511 511 511 511 511 511 511 511 511 511 511 511 511 511 511 511 511 511 511 511 511 511 511 511 511 511 511 511 511 511 511 511 511 511 511 511 511 511 511 511 511 511 511 511 511 511 511 511 511 511 511 511 511 511 511 365 219 219 219 219 219 219 219 219 219 219 292 511 511 511 511 511 511 511 511 511 511 511 511 511 511 511 511 511 511 511 511 511 511 511 511 511 511 511 511 511 511 511 511 511 511 511 511 511 511 511 511 511 511 511 511 511 511 511 511 511 511 511 511 511 511 511 511 511 511 511 511 511 511 511 511 511 511 511 511 292 219 146 146 219 219 219 292 438 511 511 511 511 511 511 511 511 511 511 511 511 511 511 511 511 511 511 511 511 511 511 511 511 511 511 511 511 511 511 511 