P264 90511209 7 57 448 292 511 511 511 511 511 511 511 511 511 511 511 511 511 511 511 511 511 511 511 511 511 511 511 511 295 60 484 496 391 63 510 496 391 63 501 496 391 63 510 496 391 63 510 496 391 63 510 496 327 126 483 432 391 63 510 496 391 63 510 511 511 511 511 511 511 383 492 280 391 63 510 496 391 63 511 360 199 60 510 496 391 63 510 496 391 63 510 496 391 63 510 496 335 62 510 496 391 63 510 496 391 63 510 496 391 63 510 496 391 63 510 496 391 63 510 496 391 63 510 496 327 125 466 496 391 63 510 496 391 63 510 496 391 63 510 496 391 63 510 496 391 63 510 496 391 63 510 496 391 63 510 496 391 63 510 496 391 127 510 434 407 62 510 496 135 122 448 73 7 121 457 366 511 511 511 511 511 511 511 511 511 511 511 511 511 511 511 496 391 63 510 496 391 63 510 496 391 63 510 496 391 127 510 427 359 189 510 432 135 122 457 145 135 186 475 511 511 511 511 511 511 511 511 511 511 511 511 511 511 511 511 511 511 511 511 438 207 59 502 504 391 63 510 496 391 63 475 288 455 63 510 360 199 59 492 496 263 316 484 511 511 511 511 511 511 511 511 511 511 511 511 511 511 511 511 511 511 255 484 352 455 63 510 496 391 63 511 360 143 58 501 504 391 63 510 496 391 63 510 496 391 63 510 496 327 126 501 496 391 63 510 496 391 63 510 511 511 511 511 366 271 60 510 496 391 63 510 434 407 63 483 208 391 63 510 496 391 63 510 496 391 63 510 496 391 63 510 496 391 63 510 496 391 63 510 496 391 63 510 496 391 63 510 496 391 63 510 496 391 63 510 496 391 63 510 434 359 253 502 496 391 63 510 496 391 63 510 496 391 63 510 496 391 63 510 496 391 63 510 496 391 63 510 496 391 63 510 496 391 63 510 496 391 63 510 496 391 63 510 497 359 253 502 496 391 63 511 432 215 507 502 511 511 511 511 511 511 511 511 511 511 511 511 496 391 63 510 496 391 63 510 496 391 63 510 496 391 63 510 496 391 63 510 497 351 126 510 496 391 63 510 288 303 508 511 511 511 511 511 511 511 511 511 511 511 511 511 511 511 255 484 360 455 63 510 497 359 253 502 497 135 59 483 504 455 63 510 496 391 63 510 496 391 63 502 290 447 510 511 511 511 511 511 511 511 511 511 511 511 511 511 366 271 60 510 496 399 319 493 434 455 63 510 208 263 60 511 496 327 62 501 288 263 61 493 216 199 59 483 216 199 59 492 352 263 61 492 424 327 62 510 511 511 319 484 424 455 63 510 427 407 62 510 496 391 63 475 288 263 125 466 144 199 123 466 144 263 124 465 1 143 122 466 73 199 123 474 145 143 122 457 280 199 59 483 360 327 62 510 496 391 63 511 360 263 61 511 496 391 63 510 496 391 63 510 216 199 123 466 288 263 60 475 288 199 60 475 280 143 122 474 209 79 57 475 145 143 122 466 217 391 63 510 496 391 191 475 73 327 62 511 496 391 63 510 496 391 63 510 496 391 63 510 496 391 127 484 366 511 511 511 511 511 511 511 511 511 511 511 217 79 57 484 504 391 63 510 290 87 121 448 144 391 62 511 496 391 63 510 496 391 63 510 496 391 63 510 496 327 318 484 511 511 511 511 511 511 511 511 511 511 511 511 439 279 61 510 496 391 127 510 496 391 63 510 496 199 59 483 145 15 120 466 496 391 63 510 496 391 63 510 496 279 509 502 511 511 511 511 511 511 511 511 511 511 383 493 360 391 63 510 496 391 63 510 496 391 63 510 280 199 59 484 352 327 61 501 424 327 62 510 496 391 63 510 496 391 63 510 424 327 62 501 352 199 60 474 511 359 61 501 496 391 63 510 496 391 63 510 496 455 63 492 145 391 62 511 504 455 63 511 504 391 63 510 496 391 63 510 496 391 63 511 504 391 63 510 496 391 62 501 288 327 62 510 496 271 189 457 73 151 186 466 217 391 62 511 496 391 63 510 497 399 127 510 497 407 190 502 496 391 63 510 497 391 63 510 496 391 63 510 504 391 127 510 434 407 127 501 218 151 122 457 146 439 318 484 144 263 61 511 504 391 63 510 496 391 63 510 496 391 63 510 425 439 510 511 511 511 511 511 511 511 511 511 427 351 254 502 497 271 252 466 146 79 313 484 511 511 383 484 146 199 59 501 496 391 63 510 496 391 63 510 496 391 63 501 429 511 511 511 511 511 511 511 511 511 511 511 426 391 63 510 496 391 63 510 496 391 63 510 504 327 62 457 291 415 191 502 424 391 63 510 496 391 63 510 496 391 255 501 511 511 511 511 511 511 511 511 511 511 127 502 496 391 63 510 496 391 63 510 496 455 63 502 216 79 185 474 427 359 318 493 364 351 254 501 434 399 63 510 496 391 191 502 427 351 254 501 427 351 254 501 437 391 63 510 496 391 63 510 496 391 63 510 360 207 379 484 374 215 59 492 504 399 127 510 496 391 63 510 496 391 63 510 496 391 127 510 434 351 254 501 427 343 190 502 497 391 63 510 218 159 186 466 146 439 510 511 511 511 447 502 292 215 59 484 504 391 63 510 496 391 63 510 496 391 63 510 496 391 63 510 496 391 63 510 496 391 63 510 504 335 253 466 147 79 249 475 511 511 511 511 511 511 511 511 439 303 60 484 496 391 63 510 496 391 63 510 496 335 445 502 511 511 511 511 511 511 511 511 496 391 63 510 290 159 186 466 73 295 508 511 511 511 511 511 511 511 511 511 292 327 61 511 496 391 63 510 496 391 63 510 354 447 510 511 511 511 511 511 511 511 127 475 496 391 63 510 496 391 63 510 496 327 190 475 366 511 511 511 365 135 59 502 496 391 63 510 496 391 63 510 496 327 381 493 511 511 511 511 511 511 511 511 511 151 58 501 504 391 63 510 496 391 63 501 424 271 444 502 511 511 511 511 219 263 60 511 496 391 63 510 496 391 63 510 496 391 63 510 496 391 63 510 496 391 63 510 366 271 60 510 496 391 63 510 496 327 62 510 424 223 507 503 511 511 447 493 217 391 62 510 496 391 63 510 496 391 63 510 496 391 63 510 496 391 63 510 496 391 63 510 496 391 191 475 147 151 122 457 438 511 511 511 511 511 511 511 511 367 125 475 288 455 63 510 496 391 63 510 496 391 63 510 496 391 63 510 496 391 63 510 496 391 63 511 424 151 250 466 73 151 506 511 511 511 511 511 511 511 511 502 218 327 61 511 496 391 63 510 496 391 63 510 290 375 445 502 365 367 445 502 511 511 511 511 496 455 127 493 147 151 122 457 219 511 511 511 511 511 511 511 511 231 59 475 496 391 63 510 496 391 63 510 504 263 124 457 74 7 57 448 0 79 185 466 292 439 510 511 219 327 61 511 496 391 63 510 496 391 63 510 288 295 508 511 511 511 319 475 496 391 63 510 496 455 63 501 72 7 56 448 0 7 56 448 0 7 56 448 146 511 447 493 217 391 62 511 496 391 63 510 496 391 63 510 216 295 508 511 511 375 125 475 432 391 63 510 496 391 63 510 496 391 63 510 496 391 63 510 496 391 63 510 511 511 319 484 216 391 63 511 496 391 63 510 496 455 63 502 280 295 508 502 511 223 59 492 496 391 63 510 496 391 63 510 496 391 63 510 496 391 63 510 496 391 63 510 496 271 252 466 146 79 313 484 511 511 511 511 511 511 383 484 216 391 62 510 366 271 60 510 496 391 63 510 496 391 127 510 496 391 63 510 496 391 63 510 496 391 63 510 289 159 186 466 73 367 509 511 511 511 511 511 293 207 59 501 504 391 63 510 496 391 63 511 432 71 58 448 73 223 315 484 365 367 317 484 146 7 56 448 496 391 191 484 147 151 122 457 438 511 511 511 511 367 125 484 432 455 63 510 496 391 63 510 504 391 63 466 1 223 443 502 511 511 511 511 511 511 447 502 292 367 509 511 511 511 319 475 280 391 63 510 496 391 63 510 496 391 63 510 352 279 444 502 496 455 63 510 144 79 377 493 511 511 511 511 511 511 511 511 511 511 511 511 511 511 511 511 511 511 254 475 280 391 63 510 496 391 63 510 496 455 63 511 288 151 250 466 209 391 62 510 496 399 255 501 427 359 253 501 434 407 63 510 496 391 63 510 511 511 511 511 511 511 319 484 280 391 62 511 496 391 63 510 496 335 125 457 0 7 120 457 360 455 63 510 496 391 191 502 363 407 126 510 496 391 63 510 496 391 63 510 496 215 252 466 73 79 377 493 438 439 446 493 362 391 63 510 496 391 63 510 73 79 57 484 504 391 63 510 496 399 255 501 497 391 63 510 496 391 63 510 496 391 63 510 217 15 56 448 73 79 121 457 73 79 121 475 504 391 63 510 496 391 63 511 496 135 122 457 366 511 511 511 511 511 511 511 511 511 511 511 511 511 511 511 496 391 127 475 1 7 56 456 0 7 56 448 0 87 121 501 504 391 63 510 504 391 62 466 1 367 509 511 511 511 511 511 511 511 511 511 511 511 511 511 511 511 511 511 511 511 511 511 511 511 319 484 217 327 62 510 496 455 127 502 146 15 56 448 72 7 248 475 511 511 511 511 511 511 511 511 511 511 511 511 511 511 511 511 511 511 511 511 511 511 511 511 511 511 447 493 218 263 61 510 504 335 125 457 0 71 121 457 1 199 59 510 496 391 191 502 427 359 253 501 434 407 126 510 496 391 63 510 511 511 511 511 511 511 511 511 511 511 511 502 293 279 60 501 288 7 56 448 73 7 57 448 144 391 63 510 496 391 127 510 427 351 126 510 496 391 63 510 496 391 63 510 496 215 188 457 73 79 57 456 72 79 57 448 1 151 122 502 504 391 63 492 64 15 56 457 432 455 63 510 496 391 191 510 434 391 63 510 496 391 63 510 496 391 63 510 281 15 120 457 73 15 121 457 73 79 57 448 1 143 122 501 363 87 57 448 73 367 509 511 511 511 511 511 511 511 511 511 511 511 511 511 511 511 511 511 496 391 127 484 73 7 56 456 73 79 57 456 0 7 56 448 74 439 445 502 73 7 184 466 511 511 511 511 511 511 511 511 511 511 511 511 511 511 511 511 511 511 511 511 511 511 511 511 511 511 511 511 511 511 511 511 439 367 253 484 146 7 56 448 0 223 507 511 511 511 511 511 511 511 511 511 511 511 511 511 511 511 511 511 511 511 511 511 511 511 511 511 511 511 511 511 511 511 511 511 511 511 511 511 292 7 56 448 0 71 57 501 504 391 127 510 498 351 254 501 433 399 127 510 496 391 63 510 511 511 511 511 511 511 511 511 511 511 511 511 511 511 511 511 511 511 511 511 292 151 250 466 146 327 61 511 496 391 191 502 427 359 189 502 497 399 63 510 496 391 63 510 496 335 189 466 65 7 56 448 0 7 56 448 73 295 444 502 511 367 61 448 511 447 254 475 352 455 63 510 496 391 63 510 497 391 63 510 496 391 63 510 496 391 63 511 361 159 122 457 73 151 250 475 292 367 445 502 511 511 511 511 219 7 56 448 292 511 511 511 511 511 511 511 511 511 511 511 511 511 511 511 511 511 511 511 496 455 127 502 146 15 248 475 511 511 511 511 511 511 511 511 511 367 125 457 0 79 441 502 511 511 511 511 511 511 511 511 511 511 511 511 511 511 511 511 511 511 511 511 511 511 511 511 511 511 511 511 511 511 511 511 511 511 511 511 511 511 511 511 292 511 511 511 511 511 511 511 511 511 511 511 511 511 511 511 511 511 511 511 511 511 511 511 511 511 511 511 511 511 511 511 511 511 511 511 511 511 511 511 511 511 511 511 511 215 59 493 504 391 63 510 496 391 63 510 496 391 63 510 496 391 63 510 511 511 511 511 511 511 511 511 511 511 511 511 511 511 511 511 511 511 511 511 511 511 447 502 73 207 123 502 496 391 63 510 496 391 63 510 496 391 63 510 496 391 127 510 425 215 124 457 0 223 507 511 511 511 511 511 511 511 447 502 73 7 56 448 511 367 61 448 0 151 186 475 290 279 189 492 362 343 189 493 354 279 189 484 218 151 186 457 1 7 56 448 73 439 510 511 511 511 511 511 365 79 57 448 0 151 506 511 511 511 511 511 511 511 511 511 511 511 511 511 511 511 511 511 511 511 511 511 1 7 56 448 73 79 57 448 219 367 381 493 292 151 58 448 0 7 184 466 438 511 511 511 511 511 511 511 511 511 511 511 511 511 511 511 511 511 511 511 511 511 511 511 511 511 511 511 511 511 511 511 511 511 511 511 511 511 511 511 511 511 511 511 511 511 511 511 511 511 511 511 511 511 511 511 511 511 511 511 511 511 511 511 511 511 511 511 511 511 511 511 511 511 511 511 511 511 511 511 511 511 511 511 511 511 511 511 146 7 56 448 0 15 120 457 73 87 185 457 74 87 185 457 74 79 121 448 511 511 511 511 511 511 511 511 511 511 511 511 511 511 511 511 511 511 511 511 511 367 125 457 0 79 121 456 64 7 56 448 0 7 56 448 0 7 56 448 0 7 56 456 73 7 121 457 138 79 57 448 0 7 56 448 0 7 56 456 219 439 510 511 219 7 56 448 73 79 121 457 73 79 57 457 72 15 57 457 72 71 121 457 65 15 121 457 64 7 184 466 137 7 56 448 0 7 120 457 219 367 509 511 511 511 511 511 511 511 511 511 511 511 511 511 511 511 511 511 511 511 511 511 511 511 511 511 65 79 121 457 0 79 185 466 146 367 381 493 365 439 510 511 511 511 511 511 511 511 511 511 511 511 511 511 511 511 511 511 511 511 511 511 511 511 511 511 511 511 511 511 511 511 511 511 511 511 511 511 511 511 511 511 511 511 511 511 511 511 511 511 511 511 511 511 511 511 511 511 511 511 511 511 511 511 511 511 511 511 511 511 511 511 511 511 511 511 511 511 511 511 511 511 511 511 511 511 511 511 511 511 511 439 126 457 0 79 121 456 65 7 121 456 64 79 121 457 73 7 120 457 73 79 121 456 511 511 511 511 511 511 511 511 511 511 511 511 511 511 511 511 511 511 511 511 292 7 56 448 73 15 121 456 64 79 57 448 73 151 122 457 0 7 121 456 73 15 121 456 73 79 57 448 73 151 186 466 438 511 511 511 511 511 511 511 511 511 511 511 0 7 120 457 65 15 121 456 65 7 120 457 146 79 57 448 72 79 121 457 65 79 121 456 65 7 121 457 146 79 313 484 511 511 511 511 511 511 511 511 511 511 511 511 511 511 511 511 511 511 511 511 511 511 511 511 511 511 511 511 511 511 511 511 65 79 121 456 64 7 184 466 73 151 506 511 511 511 511 511 511 511 511 511 511 511 511 511 511 511 511 511 511 511 511 511 511 511 511 511 511 511 511 511 511 511 511 511 511 511 511 511 511 511 511 511 511 511 511 511 511 511 511 511 511 511 255 475 511 511 511 511 511 511 511 511 511 511 511 511 511 511 511 511 511 511 511 511 511 511 511 511 511 511 511 511 511 511 511 511 511 511 511 511 511 511 511 511 511 151 58 448 64 79 121 456 65 15 121 457 64 7 184 466 73 7 56 457 72 15 121 456 511 511 511 511 511 511 511 511 511 511 511 511 511 511 511 511 511 511 447 502 73 7 120 456 64 15 121 456 65 79 121 457 0 79 121 457 64 7 57 457 65 15 121 456 73 15 121 456 0 79 121 457 146 439 510 511 511 511 511 511 511 511 511 511 0 79 121 456 65 15 121 456 64 79 57 448 73 223 123 466 0 79 121 456 65 15 121 457 65 79 57 448 73 79 121 457 438 511 511 511 511 511 511 511 511 511 511 511 511 511 511 511 511 511 511 511 511 511 511 511 511 511 511 511 511 511 511 511 65 15 121 457 73 7 121 457 73 79 377 493 511 511 511 511 511 511 511 511 511 511 511 511 511 511 511 511 511 511 511 511 511 511 511 511 511 511 511 511 511 511 511 511 511 511 511 511 511 511 511 511 511 511 511 511 511 511 511 511 511 367 125 457 511 511 511 511 511 511 511 511 511 511 511 511 511 511 511 511 511 511 511 511 511 511 511 511 511 511 511 511 511 511 511 511 511 511 511 511 511 511 511 511 365 7 56 448 73 79 121 456 65 15 121 456 64 7 184 466 511 295 60 448 0 79 57 456 511 511 511 511 511 511 511 511 511 511 511 511 511 511 511 511 511 511 319 484 0 7 120 457 65 15 121 456 65 79 57 448 73 367 509 511 511 223 59 448 0 79 121 456 65 79 121 457 64 79 121 457 65 367 509 511 511 511 511 511 511 511 511 511 0 79 121 456 65 15 121 457 0 7 248 475 511 511 511 511 511 151 58 448 64 79 121 456 73 15 57 456 73 79 57 448 292 511 511 511 511 511 511 511 511 511 511 511 511 511 511 511 511 511 511 511 511 511 511 511 511 511 511 511 511 511 511 511 73 79 121 457 73 15 121 457 73 7 312 484 511 511 511 511 511 511 511 511 511 511 511 511 511 511 511 511 511 511 511 511 511 511 511 511 511 511 511 511 511 511 511 511 511 511 511 511 511 511 511 511 511 511 511 511 511 511 511 511 511 295 60 448 511 511 511 511 511 511 511 511 511 511 511 511 511 511 511 511 511 511 511 511 511 511 511 511 511 511 511 511 511 511 511 511 511 511 511 511 511 511 511 511 219 7 56 448 73 79 121 456 73 79 57 448 73 439 510 511 511 511 511 511 438 79 57 448 511 511 511 511 511 511 511 511 511 511 511 511 511 511 511 511 511 511 255 475 0 7 120 457 65 15 121 457 0 7 312 484 511 511 511 511 511 511 511 511 365 79 57 448 73 79 121 457 65 79 57 456 0 295 508 511 511 511 511 511 511 511 511 511 0 7 121 456 73 7 57 448 146 511 511 511 511 511 511 511 511 511 511 511 292 7 56 448 65 7 57 448 64 7 56 448 292 511 511 511 511 511 511 511 511 511 511 511 511 511 511 511 511 511 511 511 511 511 511 511 511 511 511 511 511 511 511 511 146 7 120 457 73 79 121 457 65 7 249 475 511 511 511 511 511 511 511 511 511 511 511 511 511 511 511 511 511 511 511 511 511 511 511 511 511 511 511 511 511 511 511 511 511 511 511 511 511 511 511 511 511 511 511 511 511 511 511 511 511 223 59 448 511 511 511 511 511 511 511 511 511 511 511 511 511 511 511 511 511 511 511 511 511 511 511 511 511 511 511 511 511 511 511 511 511 511 511 511 511 511 511 511 211 79 185 466 73 79 121 456 0 79 377 493 511 511 511 511 511 511 511 511 511 511 511 511 511 511 511 511 511 511 511 511 511 511 511 511 511 511 511 511 511 439 190 466 0 79 121 457 73 7 57 448 146 511 511 511 511 511 511 511 511 511 511 511 511 511 383 493 73 79 185 466 146 79 57 448 0 79 377 493 511 511 511 511 511 511 511 511 64 7 121 457 0 7 248 475 511 511 511 511 511 511 511 511 511 511 511 511 511 439 126 457 0 79 121 457 64 7 57 456 73 295 508 511 511 511 511 511 511 511 511 511 511 511 511 511 511 511 511 511 511 511 511 511 511 511 511 511 511 511 511 511 438 151 58 448 0 7 121 456 73 7 57 448 146 439 510 511 511 511 511 511 511 511 511 511 511 511 511 511 511 511 511 511 511 511 511 511 511 511 511 511 511 511 511 511 511 511 511 511 511 511 511 511 511 511 511 511 511 511 511 511 438 79 57 448 511 511 511 511 511 511 511 511 511 511 511 511 511 511 511 511 511 511 511 511 511 511 511 511 511 511 511 511 511 511 511 511 511 511 511 511 511 511 383 493 64 7 120 457 64 79 57 448 0 295 508 511 511 511 511 511 511 511 511 511 511 511 511 511 511 511 511 511 511 511 511 511 511 511 511 511 511 511 511 511 511 295 60 448 0 79 57 456 73 7 120 457 438 511 511 511 511 511 511 511 511 511 511 511 511 511 511 511 146 7 56 456 73 79 121 457 64 7 120 457 365 511 511 511 511 511 511 511 73 15 121 456 0 151 442 502 511 511 511 511 511 511 511 511 511 511 511 511 511 511 255 475 0 7 120 457 65 15 57 456 0 79 313 484 511 511 511 511 511 511 511 511 511 511 511 511 511 511 511 511 511 511 511 511 511 511 511 511 511 511 511 511 511 295 60 448 0 79 121 456 65 7 57 456 0 223 507 511 511 511 511 511 511 511 511 511 511 511 511 511 511 511 511 511 511 511 511 511 511 511 511 511 511 511 511 511 511 511 511 511 511 511 511 511 511 511 511 511 511 511 511 511 219 7 56 456 511 511 511 511 511 511 511 511 511 511 511 511 511 511 511 511 511 511 511 511 511 511 511 511 511 511 511 511 511 511 511 511 511 511 511 511 511 511 191 466 0 79 121 456 65 15 57 448 146 447 511 511 511 511 511 511 511 511 511 511 511 511 511 511 511 511 511 511 511 511 511 511 511 511 511 511 511 511 511 511 438 79 57 448 73 15 121 457 73 7 184 466 438 511 511 511 511 511 511 511 511 511 511 511 511 511 511 511 365 79 57 448 73 15 121 456 73 15 57 448 146 511 511 511 511 511 511 511 65 15 121 456 0 151 506 511 511 511 511 511 511 511 511 511 511 511 511 511 511 511 447 502 73 7 120 456 65 15 121 456 73 7 120 457 438 511 511 511 511 511 511 511 511 511 511 511 511 511 511 511 511 511 511 511 511 511 511 511 511 511 511 511 511 511 191 466 0 7 121 457 64 15 121 457 0 7 376 493 511 511 511 511 511 511 511 511 511 511 511 511 511 511 511 511 511 511 511 511 511 511 511 511 511 511 511 511 511 511 511 511 511 511 511 511 511 511 511 511 511 511 447 502 73 7 120 457 511 511 511 511 511 511 511 511 511 511 511 511 511 511 511 511 511 511 511 511 511 511 511 511 511 511 511 511 511 511 511 511 511 511 511 511 511 295 60 448 0 7 56 448 0 7 56 448 146 511 511 511 511 511 511 511 511 511 511 511 511 511 511 511 511 511 511 511 511 511 511 511 511 511 511 511 365 223 187 466 64 15 121 457 73 79 121 457 73 7 184 466 511 511 511 511 511 511 511 511 511 511 511 511 511 511 511 511 511 223 60 448 0 7 57 456 64 79 57 448 0 295 508 511 511 511 511 511 138 87 121 457 0 79 441 502 511 511 511 511 511 511 511 511 511 511 511 511 511 511 511 511 365 79 57 448 65 7 57 456 65 15 56 448 219 511 511 511 511 511 511 511 511 511 511 511 511 511 511 511 511 511 511 511 511 511 511 511 511 511 511 511 511 511 383 493 73 79 121 457 73 79 121 457 73 7 120 457 438 511 511 511 511 511 511 511 511 511 511 511 511 511 511 511 511 511 511 511 511 511 511 511 511 511 511 511 511 511 511 511 511 511 447 502 292 151 122 457 0 7 56 448 73 79 121 457 511 511 511 511 511 511 511 511 511 511 511 511 511 511 511 511 511 511 511 511 511 511 511 511 511 511 511 511 365 79 57 448 0 7 56 448 65 79 121 457 64 7 57 456 73 79 57 448 0 367 509 511 511 511 511 511 511 511 511 511 511 511 511 511 511 511 511 511 511 367 125 457 0 7 120 457 65 79 121 457 65 15 121 457 64 15 57 456 0 7 248 475 511 511 511 511 511 511 511 511 511 511 511 511 511 511 511 511 511 223 59 448 73 79 121 457 73 79 121 457 0 7 248 475 511 511 511 511 0 7 120 457 292 511 511 511 511 511 511 511 511 511 511 511 511 511 511 511 511 511 319 484 0 7 120 456 0 7 56 448 0 7 121 457 0 79 441 502 511 511 511 511 511 511 511 511 511 511 511 511 511 511 511 511 511 511 511 511 511 511 511 511 365 7 56 448 73 79 121 457 65 7 121 457 73 15 57 448 0 367 509 511 511 511 511 511 511 511 511 511 511 511 511 511 511 511 511 511 511 511 511 511 511 511 511 511 511 511 511 511 292 79 121 457 73 7 56 448 73 7 57 456 73 79 121 457 511 511 511 511 511 511 511 511 511 511 511 511 511 511 511 511 511 511 511 511 511 511 511 511 511 511 383 493 146 151 58 456 73 79 57 456 73 79 121 457 65 7 56 448 146 367 509 511 511 511 511 511 511 511 511 511 511 511 511 511 511 511 511 511 511 511 511 511 511 511 319 484 146 79 185 466 73 7 184 466 146 7 56 448 73 223 443 502 511 511 511 511 511 511 511 511 511 511 511 511 511 511 511 511 511 511 191 466 0 7 121 457 0 7 120 457 64 7 56 448 73 151 122 448 292 511 511 511 511 511 511 511 511 511 511 511 511 511 511 511 511 511 511 511 511 511 511 511 438 79 121 457 138 7 120 457 73 7 121 457 73 7 120 457 146 151 442 502 511 511 511 511 511 511 511 511 511 511 511 511 511 511 511 511 511 511 511 511 511 511 511 511 146 151 122 457 0 151 250 475 0 79 249 475 74 79 249 475 438 511 511 511 511 511 511 511 511 511 511 511 511 511 511 511 511 511 511 511 511 511 511 511 511 511 511 511 511 511 511 511 511 511 447 502 292 151 122 457 146 151 122 457 0 151 378 493 511 511 511 511 511 511 511 511 511 511 511 511 511 511 511 511 511 511 511 511 511 511 511 511 511 511 511 511 511 511 511 511 438 439 446 502 365 295 380 493 511 511 511 511 511 511 511 511 511 511 511 511 511 511 511 511 511 511 511 511 511 511 447 502 511 511 511 511 511 511 511 511 511 511 511 511 511 511 511 511 511 511 511 511 511 511 511 511 511 511 511 511 511 511 511 511 511 511 511 511 511 511 511 511 511 511 447 502 219 223 251 475 146 151 186 466 146 223 379 493 511 511 511 511 511 511 511 511 